HIERARCHY
ROOT Hips
{
	OFFSET 0.00 0.00 0.00
	CHANNELS 6 Xposition Yposition Zposition Xrotation Yrotation Zrotation
	JOINT RightUpLeg
	{
		OFFSET -3.76699 0.00000 0.00000
		CHANNELS 3 Xrotation Yrotation Zrotation
		JOINT RightLeg
		{
			OFFSET 0.00000 -18.01768 0.00000
			CHANNELS 3 Xrotation Yrotation Zrotation
			JOINT RightFoot
			{
				OFFSET 0.00000 -16.88108 0.00000
				CHANNELS 3 Xrotation Yrotation Zrotation
				JOINT RightToeBase
				{
					OFFSET 0.00000 -1.49359 5.57418
					CHANNELS 3 Xrotation Yrotation Zrotation
					End Site
					{
						OFFSET 0.00000 0.00000 2.95275
					}
				}
			}
		}
	}
	JOINT LeftUpLeg
	{
		OFFSET 3.76699 0.00000 0.00000
		CHANNELS 3 Xrotation Yrotation Zrotation
		JOINT LeftLeg
		{
			OFFSET 0.00000 -18.01768 0.00000
			CHANNELS 3 Xrotation Yrotation Zrotation
			JOINT LeftFoot
			{
				OFFSET 0.00000 -16.88108 0.00000
				CHANNELS 3 Xrotation Yrotation Zrotation
				JOINT LeftToeBase
				{
					OFFSET 0.00000 -1.49359 5.57418
					CHANNELS 3 Xrotation Yrotation Zrotation
					End Site
					{
						OFFSET 0.00000 0.00000 2.95275
					}
				}
			}
		}
	}
	JOINT Spine
	{
		OFFSET 0.00000 7.77970 0.00000
		CHANNELS 3 Xrotation Yrotation Zrotation
		JOINT RightShoulder
		{
			OFFSET 0.00000 10.94176 0.00000
			CHANNELS 3 Xrotation Yrotation Zrotation
			JOINT RightArm
			{
				OFFSET -7.70894 0.00000 0.00000
				CHANNELS 3 Xrotation Yrotation Zrotation
				JOINT RightForeArm
				{
					OFFSET -11.52135 0.00000 0.00000
					CHANNELS 3 Yrotation Zrotation Xrotation
					JOINT RightHand
					{
						OFFSET -10.17590 0.00000 0.00000
						CHANNELS 3 Xrotation Yrotation Zrotation
						End Site
						{
							OFFSET -3.93700 0.00000 0.00000
						}
						JOINT RightHandThumb1
						{
							OFFSET 0.00000 0.00000 0.00000
							CHANNELS 3 Xrotation Zrotation Yrotation
							End Site
							{
								OFFSET 0.00000 0.00000 3.93700
							}
						}
					}
				}
			}
		}
		JOINT LeftShoulder
		{
			OFFSET 0.00000 10.94176 0.00000
			CHANNELS 3 Xrotation Yrotation Zrotation
			JOINT LeftArm
			{
				OFFSET 7.70894 0.00000 0.00000
				CHANNELS 3 Xrotation Yrotation Zrotation
				JOINT LeftForeArm
				{
					OFFSET 11.52135 0.00000 0.00000
					CHANNELS 3 Yrotation Zrotation Xrotation
					JOINT LeftHand
					{
						OFFSET 10.17590 0.00000 0.00000
						CHANNELS 3 Xrotation Yrotation Zrotation
						End Site
						{
							OFFSET 3.93700 0.00000 0.00000
						}
						JOINT LeftHandThumb1
						{
							OFFSET 0.00000 0.00000 0.00000
							CHANNELS 3 Xrotation Zrotation Yrotation
							End Site
							{
								OFFSET 0.00000 0.00000 3.93700
							}
						}
					}
				}
			}
		}
		JOINT Head
		{
			OFFSET 0.00000 16.64604 0.00000
			CHANNELS 3 Xrotation Yrotation Zrotation
			End Site
			{
				OFFSET 0.00000 4.52755 0.00000
			}
		}
	}
}
MOTION
Frames: 21
Frame Time: 0.008333
 3.0394 3.5362 -0.4853 -35.4756 -4.7488 5.2484 -53.5866 6.2534 -43.3340 4.0325 -0.0000 -0.0000 12.2372 -32.1994 28.2760 -1.2329 0.0000 0.0000 -50.7968 8.3516 32.6548 -0.2763 -0.0000 -0.0000 26.5956 22.6915 -34.3333 -0.0085 0.0000 -0.0000 77.4013 -6.8047 13.7821 -34.3056 45.5355 -29.3194 -24.3642 -0.3332 38.4286 39.1794 0.0000 18.4910 0.1866 1.3994 -7.5958 32.8623 0.0000 -24.3270 4.0145 7.9628 45.3979 -95.6689 -44.9005 -46.5770 -23.0285 0.0000 31.8836 -0.5611 12.4495 2.6013 33.1476 -0.0000 26.2537 50.6278 24.9761 7.9087
 3.0529 3.5247 -0.4873 -35.3316 -4.5557 5.2452 -53.6995 6.1804 -43.4903 4.0176 -0.0000 -0.0000 12.3350 -32.2480 28.3024 -0.9762 0.0000 0.0000 -51.0631 8.3322 32.5204 -0.2424 0.0000 -0.0000 26.6012 22.7479 -34.2762 -0.0271 0.0000 -0.0000 77.4311 -6.8997 13.6452 -34.4244 45.9026 -29.2462 -24.0986 -0.2516 38.5190 39.0747 0.0000 18.4316 0.1847 1.4170 -7.4269 32.8623 0.0000 -24.3270 4.3178 7.9901 45.1831 -95.4427 -44.8345 -46.4711 -22.5718 0.0000 31.7422 -0.5374 12.3922 2.5025 33.1476 -0.0000 26.2537 50.5701 25.0032 7.4700
 3.0590 3.5135 -0.4881 -35.1900 -4.4311 5.2365 -53.7705 6.1836 -43.5801 4.0188 -0.0000 0.0000 12.4709 -32.3347 28.5801 -0.8521 -0.0000 -0.0000 -51.3567 8.4061 32.4659 -0.2099 0.0000 -0.0000 26.6067 22.7165 -34.3117 -0.0039 0.0000 -0.0000 77.4408 -6.8843 13.3679 -34.4999 46.0476 -29.2196 -24.0345 -0.1154 38.7078 38.8028 0.0000 18.4151 0.1880 1.4817 -7.2334 32.8623 0.0000 -24.3270 4.5627 7.8984 45.0914 -95.2187 -44.7134 -46.4384 -22.1436 0.0000 31.6797 -0.5066 12.3477 2.3678 33.1476 -0.0000 26.2537 50.4477 25.0631 7.2804
 3.0671 3.5055 -0.4871 -35.0672 -4.2661 5.2159 -53.8980 6.0764 -43.7042 4.0184 -0.0000 -0.0000 12.5100 -32.3122 28.5530 -0.4832 0.0000 0.0000 -51.6259 8.4553 32.3826 -0.1933 -0.0000 0.0000 26.6051 22.6808 -34.3205 -0.0195 -0.0000 -0.0000 77.5023 -6.8904 13.1741 -34.5877 46.2689 -29.1992 -23.9333 -0.0213 38.8573 38.6002 0.0000 18.2218 0.1820 1.4933 -6.9509 32.8623 0.0000 -24.3270 4.8315 7.8698 44.9456 -94.9861 -44.6259 -46.3623 -21.7248 0.0000 31.6496 -0.4731 12.3319 2.2143 33.1476 -0.0000 26.2537 50.2867 25.1413 7.0130
 3.0767 3.4976 -0.4866 -34.9426 -4.0967 5.2022 -53.9734 5.9982 -43.8378 3.9767 -0.0000 -0.0000 12.5839 -32.3404 28.5080 -0.2332 -0.0000 -0.0000 -51.9009 8.5145 32.2892 -0.1711 0.0000 -0.0000 26.6022 22.6701 -34.3502 -0.0007 -0.0000 0.0000 77.5944 -6.9381 12.9971 -34.7254 46.5197 -29.1318 -23.8994 0.0260 39.0530 38.4200 0.0000 18.3179 0.1865 1.5739 -6.7590 32.8623 0.0000 -24.3270 5.1037 7.9092 44.7983 -94.7962 -44.5277 -46.3001 -21.3208 0.0000 31.5397 -0.4424 12.3178 2.0730 33.1476 -0.0000 26.2537 50.1412 25.1826 6.6520
 3.0856 3.5028 -0.4828 -34.8855 -3.8463 5.1134 -53.9263 5.7755 -44.0200 3.8736 0.0000 -0.0000 12.5337 -32.3014 28.1799 0.0859 0.0000 -0.0000 -52.0892 8.4841 32.1690 -0.1834 0.0000 0.0000 26.6171 22.6574 -34.3939 -0.0599 0.0000 -0.0000 77.7704 -6.8851 12.9540 -34.8717 46.7875 -29.0670 -23.6236 0.2565 39.1390 38.2179 0.0000 18.4289 0.1626 1.3866 -6.6910 32.8623 0.0000 -24.3270 5.3310 7.7721 44.6330 -94.4209 -44.4679 -46.1324 -20.9120 0.0000 31.4947 -0.3971 12.2823 1.8659 33.1476 -0.0000 26.2537 49.9889 25.1868 6.3340
 3.0908 3.4984 -0.4823 -34.7627 -3.6778 5.0260 -54.0891 5.5346 -44.0909 3.8350 0.0000 0.0000 12.5395 -32.2380 28.0023 0.3332 0.0000 0.0000 -52.3372 8.4513 32.1304 -0.1653 0.0000 -0.0000 26.6189 22.7064 -34.4932 0.0592 0.0000 -0.0000 77.8845 -6.8004 12.8052 -34.9431 46.9753 -29.0730 -23.5551 0.3957 39.2988 38.0106 0.0000 18.3972 0.1589 1.4109 -6.4270 32.8623 0.0000 -24.3270 5.5322 7.6808 44.5149 -94.1511 -44.3333 -46.0753 -20.5522 0.0000 31.4854 -0.3393 12.3853 1.5814 33.1476 -0.0000 26.2537 49.8678 25.3051 6.0086
 3.0987 3.4979 -0.4795 -34.6538 -3.4686 4.9686 -54.0781 5.4178 -44.2363 3.7585 0.0000 0.0000 12.7037 -32.3516 28.2165 0.3431 -0.0000 -0.0000 -52.5883 8.4588 32.0352 -0.1451 0.0000 0.0000 26.6198 22.7170 -34.5220 0.1279 -0.0000 -0.0000 78.0239 -6.7745 12.6867 -35.0916 47.2189 -28.9728 -23.4523 0.4887 39.4182 37.8556 0.0000 18.5169 0.1508 1.3960 -6.1639 32.8623 0.0000 -24.3270 5.7878 7.6137 44.3630 -93.9350 -44.2648 -45.9979 -20.1356 0.0000 31.5170 -0.2803 12.4499 1.2998 33.1476 -0.0000 26.2537 49.7302 25.3853 5.7429
 3.1118 3.4890 -0.4781 -34.4914 -3.2860 4.9626 -54.1031 5.4295 -44.3914 3.7163 -0.0000 -0.0000 12.8388 -32.5236 28.2331 0.2316 0.0000 0.0000 -52.8991 8.5001 31.9271 -0.0951 -0.0000 -0.0000 26.6400 22.7778 -34.6103 0.0122 -0.0000 -0.0000 78.1041 -6.8226 12.5070 -35.1951 47.4198 -28.8942 -23.3939 0.6106 39.5769 37.6795 0.0000 18.5796 0.1447 1.4100 -5.8602 32.8623 0.0000 -24.3270 6.0028 7.5601 44.2485 -93.7109 -44.1652 -45.9811 -19.7412 0.0000 31.5247 -0.2166 12.5130 0.9995 33.1476 -0.0000 26.2537 49.6324 25.5221 5.4832
 3.1251 3.4789 -0.4772 -34.3147 -3.0961 4.9509 -54.2114 5.3863 -44.5429 3.6916 -0.0000 0.0000 12.9045 -32.6149 28.1068 0.5341 -0.0000 0.0000 -53.2301 8.5087 31.8171 -0.0114 0.0000 0.0000 26.6404 22.8558 -34.6252 -0.0421 0.0000 0.0000 78.1737 -6.8527 12.3355 -35.3410 47.6337 -28.7883 -23.2701 0.7480 39.7146 37.5181 0.0000 18.5506 0.1286 1.2745 -5.7644 32.8623 0.0000 -24.3270 6.2711 7.5311 44.1078 -93.5152 -44.1512 -45.9163 -19.3170 0.0000 31.4262 -0.1907 12.4917 0.8815 33.1476 -0.0000 26.2537 49.5782 25.4551 5.1936
 3.1328 3.4707 -0.4787 -34.1292 -2.9507 4.9357 -54.3073 5.3809 -44.6381 3.6659 0.0000 0.0000 12.9971 -32.7365 28.1006 0.8000 -0.0000 -0.0000 -53.5909 8.5929 31.7617 0.0453 -0.0000 -0.0000 26.7201 22.8745 -34.6755 -0.1239 -0.0000 -0.0000 78.2776 -6.8755 12.0820 -35.5710 47.8056 -28.6190 -23.1514 0.8823 39.8729 37.3827 0.0000 18.4757 0.1330 1.3357 -5.6863 32.8623 0.0000 -24.3270 6.4248 7.5241 44.0587 -93.4437 -43.9878 -46.0438 -18.9416 0.0000 31.3369 -0.2034 12.4389 0.9441 33.1476 -0.0000 26.2537 49.3087 25.6151 5.0679
 3.1438 3.4665 -0.4759 -33.9818 -2.7776 4.9290 -54.3796 5.3245 -44.7775 3.6188 -0.0000 -0.0000 13.0778 -32.7829 28.0935 0.9686 0.0000 -0.0000 -53.9080 8.6699 31.6658 0.1129 -0.0000 0.0000 26.7200 22.9634 -34.6641 -0.9838 -0.0000 0.0000 78.4255 -6.9009 11.8772 -35.8125 47.9984 -28.4776 -23.1033 0.9413 40.0948 37.1910 0.0000 18.5316 0.1325 1.3493 -5.6110 32.8623 0.0000 -24.3270 6.6691 7.5319 43.9728 -93.4316 -43.8537 -46.1087 -18.5281 0.0000 31.4632 -0.0946 12.5011 0.4372 33.1476 -0.0000 26.2537 48.9902 25.8001 4.9730
 3.1559 3.4606 -0.4739 -33.7981 -2.5872 4.9200 -54.5037 5.2529 -44.9269 3.5813 0.0000 0.0000 13.1747 -32.8126 28.1317 1.1849 -0.0000 0.0000 -54.2475 8.7233 31.5584 0.1704 -0.0000 0.0000 26.7480 23.0454 -34.7075 -0.7585 0.0000 0.0000 78.5393 -6.9514 11.7030 -36.0512 48.2542 -28.3148 -22.9124 0.9909 40.2633 37.1302 0.0000 18.3240 0.1376 1.4022 -5.6034 32.8623 0.0000 -24.3270 6.9020 7.5554 43.8876 -93.5114 -43.5695 -46.2937 -18.2042 0.0000 31.5983 -0.0679 12.3888 0.3163 33.1476 -0.0000 26.2537 48.7696 25.8977 4.7896
 3.1655 3.4564 -0.4713 -33.5973 -2.4174 4.8867 -54.6008 5.1960 -45.0558 3.5273 0.0000 -0.0000 13.2655 -32.7607 28.0988 1.3490 0.0000 0.0000 -54.6151 8.7936 31.4892 0.2372 0.0000 0.0000 26.7330 23.0331 -34.7419 -0.0922 -0.0000 -0.0000 78.6498 -7.0020 11.5240 -36.3922 48.5353 -28.0571 -22.6895 1.1097 40.4481 36.9954 0.0000 18.2482 0.1493 1.5115 -5.6427 32.8623 0.0000 -24.3270 7.1394 7.6042 43.7623 -93.5615 -43.3710 -46.4383 -17.8781 0.0000 31.6386 -0.0048 12.3817 0.0225 33.1476 -0.0000 26.2537 48.6062 26.0207 4.5544
 3.1690 3.4600 -0.4662 -33.4846 -2.2778 4.8402 -54.6306 5.1027 -45.1448 3.4713 -0.0000 -0.0000 13.3011 -32.7721 28.0936 1.2821 0.0000 -0.0000 -54.8697 8.8938 31.4585 0.2520 0.0000 0.0000 26.7829 23.0385 -34.9022 -0.0827 -0.0000 0.0000 78.8733 -7.0351 11.3047 -36.5844 48.7997 -27.9136 -22.5815 1.1645 40.5950 36.8713 0.0000 18.1202 0.1505 1.5326 -5.6073 32.8623 0.0000 -24.3270 7.4635 7.6625 43.6188 -93.4941 -43.3339 -46.3506 -17.5723 0.0000 31.5748 -0.0076 12.4417 0.0354 33.1476 -0.0000 26.2537 48.3833 26.2673 4.3717
 3.1867 3.4435 -0.4644 -33.1990 -2.0820 4.8782 -54.8168 5.1309 -45.3383 3.4347 0.0000 0.0000 13.4595 -32.7262 28.2063 1.3274 0.0000 0.0000 -55.3239 8.9672 31.3170 0.3402 -0.0000 -0.0000 26.7975 23.1392 -34.9364 -0.0219 0.0000 0.0000 78.8653 -7.1343 11.1187 -36.8677 49.0232 -27.7047 -22.3747 1.2991 40.8284 36.7276 0.0000 18.0637 0.1548 1.5571 -5.6780 32.8623 0.0000 -24.3270 7.6887 7.6917 43.5427 -93.5240 -43.1200 -46.5374 -17.2707 0.0000 31.6077 0.0099 12.3402 -0.0463 33.1476 -0.0000 26.2537 48.2651 26.3912 4.2033
 3.1988 3.4297 -0.4633 -32.9189 -1.9258 4.8928 -55.0423 5.1409 -45.4758 3.4329 0.0000 -0.0000 13.6269 -32.6947 28.2628 1.7052 -0.0000 -0.0000 -55.6942 8.9817 31.2197 0.3664 -0.0000 0.0000 26.8799 23.3166 -35.0416 -0.3418 -0.0000 0.0000 78.8916 -7.2109 10.8988 -37.1028 49.2516 -27.5329 -22.2189 1.3906 41.0362 36.6324 0.0000 17.9801 0.1551 1.5896 -5.5718 32.8623 0.0000 -24.3270 7.9115 7.7256 43.4165 -93.5517 -42.9857 -46.6807 -16.9863 0.0000 31.6613 0.0686 12.3135 -0.3218 33.1476 -0.0000 26.2537 48.1010 26.4196 4.0088
 3.2098 3.4251 -0.4610 -32.6767 -1.7504 4.8571 -55.2387 5.0312 -45.5920 3.3915 -0.0000 -0.0000 13.7554 -32.6555 28.3727 2.0801 -0.0000 -0.0000 -56.0559 9.0102 31.1377 0.3964 -0.0000 -0.0000 26.9745 23.4326 -35.2272 0.0359 0.0000 0.0000 78.9768 -7.2995 10.7611 -37.3178 49.5629 -27.3606 -22.0681 1.5156 41.2242 36.4718 0.0000 17.9330 0.1535 1.5869 -5.5272 32.8623 0.0000 -24.3270 8.2519 7.7675 43.1854 -93.4601 -42.9743 -46.5996 -16.7068 0.0000 31.6524 0.0860 12.3015 -0.4039 33.1476 -0.0000 26.2537 48.0369 26.4264 3.7120
 3.2164 3.4288 -0.4560 -32.4830 -1.6240 4.7984 -55.3194 4.9554 -45.6691 3.3059 0.0000 0.0000 13.9090 -32.6334 28.5093 2.1315 0.0000 0.0000 -56.3807 9.0925 31.1212 0.4145 -0.0000 -0.0000 27.0486 23.5035 -35.3284 -0.2392 -0.0000 0.0000 79.1408 -7.2386 10.5507 -37.5338 49.7241 -27.2246 -21.8933 1.7201 41.3653 36.3182 0.0000 17.8685 0.1658 1.7218 -5.5016 32.8623 0.0000 -24.3270 8.3812 7.7102 43.1195 -93.4585 -42.7792 -46.7805 -16.4617 0.0000 31.7918 0.1116 12.3606 -0.5214 33.1476 -0.0000 26.2537 47.7854 26.6160 3.6126
 3.2271 3.4259 -0.4511 -32.2655 -1.4274 4.7621 -55.4988 4.8222 -45.8137 3.2657 -0.0000 -0.0000 13.9852 -32.5201 28.5697 2.7265 0.0000 0.0000 -56.6638 9.0550 31.0111 0.4172 0.0000 -0.0000 27.1349 23.7090 -35.4441 -0.0440 0.0000 0.0000 79.2702 -7.2842 10.4095 -37.6907 49.9284 -27.1008 -21.8016 1.8820 41.5348 36.1623 0.0000 17.8188 0.1683 1.7256 -5.5709 32.8623 0.0000 -24.3270 8.6075 7.7323 43.0246 -93.4023 -42.6456 -46.8357 -16.2598 0.0000 31.8697 0.1369 12.3787 -0.6387 33.1476 -0.0000 26.2537 47.6172 26.7462 3.4862
 3.2328 3.4255 -0.4438 -32.0000 -1.3175 4.7013 -55.7021 4.7493 -45.8663 3.2315 0.0000 -0.0000 13.9804 -32.4362 28.3575 2.7290 -0.0000 0.0000 -57.0315 9.0897 31.0180 0.4404 -0.0000 0.0000 27.1479 23.8451 -35.5601 -0.2272 0.0000 -0.0000 79.3483 -7.3071 10.2079 -37.9505 50.1811 -26.8957 -21.6668 2.0039 41.7522 36.0552 0.0000 17.8674 0.1653 1.7227 -5.4812 32.8623 0.0000 -24.3270 8.8944 7.7450 42.7666 -93.3354 -42.7417 -46.8123 -15.9755 0.0000 31.8487 0.1484 12.3262 -0.6951 33.1476 -0.0000 26.2537 47.5706 26.7857 3.2004
